<?xml version="1.0" encoding="UTF-8"?>
<svg xmlns="http://www.w3.org/2000/svg" viewBox="0 0 820 588" width="820" height="588">
  <rect width="100%" height="100%" fill="#1a1a1a"/>
  <text x="16" y="22" fill="#e0e0e0" font-size="14" font-weight="600" font-family="sans-serif">Runner[1] — Response Time</text>
  <text x="16" y="38" fill="#888" font-size="10" font-family="sans-serif">Scatter: x = resume time, y = response time (off-CPU gap) · Histogram: distribution of response times · 94 points</text>
  <g transform="translate(0,44)">
    
<rect width="100%" height="100%" fill="#1e1e1e"/>
<line x1="72" y1="16" x2="778" y2="16" stroke="#333" stroke-width="1"/>
<line x1="72" y1="83.5" x2="778" y2="83.5" stroke="#333" stroke-width="1"/>
<line x1="72" y1="151" x2="778" y2="151" stroke="#333" stroke-width="1"/>
<line x1="72" y1="218.5" x2="778" y2="218.5" stroke="#333" stroke-width="1"/>
<line x1="72" y1="286" x2="778" y2="286" stroke="#333" stroke-width="1"/>
<line x1="72" y1="16" x2="72" y2="286" stroke="#666" stroke-width="1"/>
<line x1="72" y1="286" x2="778" y2="286" stroke="#666" stroke-width="1"/>
<text x="64" y="20" text-anchor="end" fill="#aaa" font-size="10" font-family="monospace">162.115 ms</text>
<text x="64" y="87.5" text-anchor="end" fill="#aaa" font-size="10" font-family="monospace">121.586 ms</text>
<text x="64" y="155" text-anchor="end" fill="#aaa" font-size="10" font-family="monospace">81.058 ms</text>
<text x="64" y="222.5" text-anchor="end" fill="#aaa" font-size="10" font-family="monospace">40.529 ms</text>
<text x="64" y="290" text-anchor="end" fill="#aaa" font-size="10" font-family="monospace">0 µs</text>
<text x="72" y="310" text-anchor="middle" fill="#aaa" font-size="10" font-family="monospace">313.575 ms</text>
<text x="425" y="310" text-anchor="middle" fill="#aaa" font-size="10" font-family="monospace">464.005 ms</text>
<text x="778" y="310" text-anchor="middle" fill="#aaa" font-size="10" font-family="monospace">614.435 ms</text>
<text x="410" y="318" text-anchor="middle" fill="#888" font-size="11" font-family="sans-serif">Time</text>
<text transform="rotate(-90 14 160)" x="14" y="160" text-anchor="middle" fill="#888" font-size="11" font-family="sans-serif">undefined</text>
<line x1="72" y1="278.10301723034803" x2="778" y2="278.10301723034803" stroke="#CE93D8" stroke-width="1" stroke-dasharray="4 3" opacity="0.85"/>
<text x="784" y="282.10301723034803" fill="#CE93D8" font-size="9" font-family="monospace">avg</text>
<line x1="72" y1="285.6685686087037" x2="778" y2="285.6685686087037" stroke="#4CAF50" stroke-width="1" stroke-dasharray="4 3" opacity="0.85"/>
<text x="784" y="289.6685686087037" fill="#4CAF50" font-size="9" font-family="monospace">p50</text>
<line x1="72" y1="250.31366622459365" x2="778" y2="250.31366622459365" stroke="#FF9800" stroke-width="1" stroke-dasharray="4 3" opacity="0.85"/>
<text x="784" y="254.31366622459365" fill="#FF9800" font-size="9" font-family="monospace">p95</text>
<circle cx="72" cy="16" r="3" fill="#4EF1D9" opacity="0.75"/>
<circle cx="72.18538190520508" cy="285.97834870308117" r="3" fill="#4EF1D9" opacity="0.75"/>
<circle cx="78.16922821245763" cy="282.0161613669309" r="3" fill="#4EF1D9" opacity="0.75"/>
<circle cx="78.40154224556272" cy="285.97834870308117" r="3" fill="#4EF1D9" opacity="0.75"/>
<circle cx="79.86347802964835" cy="285.20223298275914" r="3" fill="#4EF1D9" opacity="0.75"/>
<circle cx="80.03947350927342" cy="285.97834870308117" r="3" fill="#4EF1D9" opacity="0.75"/>
<circle cx="84.83124376786546" cy="282.8838787280634" r="3" fill="#4EF1D9" opacity="0.75"/>
<circle cx="85.12222296084558" cy="285.97834870308117" r="3" fill="#4EF1D9" opacity="0.75"/>
<circle cx="93.36350462008907" cy="280.3723282854764" r="3" fill="#4EF1D9" opacity="0.75"/>
<circle cx="100.4807618161271" cy="281.409925053203" r="3" fill="#4EF1D9" opacity="0.75"/>
<circle cx="111.38778834009173" cy="278.5869290318601" r="3" fill="#4EF1D9" opacity="0.75"/>
<circle cx="114.28115402512796" cy="284.25124140270793" r="3" fill="#4EF1D9" opacity="0.75"/>
<circle cx="114.45714950475303" cy="285.97834870308117" r="3" fill="#4EF1D9" opacity="0.75"/>
<circle cx="116.11150701322875" cy="285.07232520124603" r="3" fill="#4EF1D9" opacity="0.75"/>
<circle cx="116.22649072658379" cy="285.97834870308117" r="3" fill="#4EF1D9" opacity="0.75"/>
<circle cx="120.35182476899554" cy="283.25694722881906" r="3" fill="#4EF1D9" opacity="0.75"/>
<circle cx="120.83287907997075" cy="285.97834870308117" r="3" fill="#4EF1D9" opacity="0.75"/>
<circle cx="120.90093066542578" cy="285.97834870308117" r="3" fill="#4EF1D9" opacity="0.75"/>
<circle cx="120.96898225088081" cy="285.97834870308117" r="3" fill="#4EF1D9" opacity="0.75"/>
<circle cx="121.03703383633584" cy="285.97834870308117" r="3" fill="#4EF1D9" opacity="0.75"/>
<circle cx="341.3035897094994" cy="131.819449156463" r="3" fill="#4EF1D9" opacity="0.75"/>
<circle cx="341.4866250083095" cy="285.97834870308117" r="3" fill="#4EF1D9" opacity="0.75"/>
<circle cx="365.1896962042146" cy="269.4417543102119" r="3" fill="#4EF1D9" opacity="0.75"/>
<circle cx="368.93018679784615" cy="283.6666563858989" r="3" fill="#4EF1D9" opacity="0.75"/>
<circle cx="369.1625008309513" cy="285.97834870308117" r="3" fill="#4EF1D9" opacity="0.75"/>
<circle cx="373.24559595825303" cy="283.3302285414675" r="3" fill="#4EF1D9" opacity="0.75"/>
<circle cx="377.2277870105697" cy="283.5484069950344" r="3" fill="#4EF1D9" opacity="0.75"/>
<circle cx="377.48591371401983" cy="285.97834870308117" r="3" fill="#4EF1D9" opacity="0.75"/>
<circle cx="380.66321877285117" cy="284.0014187459519" r="3" fill="#4EF1D9" opacity="0.75"/>
<circle cx="383.43925413813736" cy="284.35783240292386" r="3" fill="#4EF1D9" opacity="0.75"/>
<circle cx="385.0818786146381" cy="285.17058877957004" r="3" fill="#4EF1D9" opacity="0.75"/>
<circle cx="385.2062487535731" cy="285.9800141874595" r="3" fill="#4EF1D9" opacity="0.75"/>
<circle cx="386.9122316027388" cy="285.0123677636246" r="3" fill="#4EF1D9" opacity="0.75"/>
<circle cx="389.1743601675198" cy="284.6176479659501" r="3" fill="#4EF1D9" opacity="0.75"/>
<circle cx="389.5662434354849" cy="285.97834870308117" r="3" fill="#4EF1D9" opacity="0.75"/>
<circle cx="389.63429502094" cy="285.97834870308117" r="3" fill="#4EF1D9" opacity="0.75"/>
<circle cx="389.702346606395" cy="285.97834870308117" r="3" fill="#4EF1D9" opacity="0.75"/>
<circle cx="389.77039819185" cy="285.97834870308117" r="3" fill="#4EF1D9" opacity="0.75"/>
<circle cx="517.0503290567042" cy="197.83092249329178" r="3" fill="#4EF1D9" opacity="0.75"/>
<circle cx="517.2826430898092" cy="285.97834870308117" r="3" fill="#4EF1D9" opacity="0.75"/>
<circle cx="539.2586119789935" cy="270.6359066095056" r="3" fill="#4EF1D9" opacity="0.75"/>
<circle cx="539.4909260120987" cy="285.97834870308117" r="3" fill="#4EF1D9" opacity="0.75"/>
<circle cx="551.8598883201489" cy="277.4477377170527" r="3" fill="#4EF1D9" opacity="0.75"/>
<circle cx="552.0382304061691" cy="285.97834870308117" r="3" fill="#4EF1D9" opacity="0.75"/>
<circle cx="564.2710895433092" cy="277.53933935786324" r="3" fill="#4EF1D9" opacity="0.75"/>
<circle cx="568.3870371601408" cy="283.3835240415754" r="3" fill="#4EF1D9" opacity="0.75"/>
<circle cx="568.6193511932461" cy="285.97834870308117" r="3" fill="#4EF1D9" opacity="0.75"/>
<circle cx="570.2455494249817" cy="285.0306880917867" r="3" fill="#4EF1D9" opacity="0.75"/>
<circle cx="571.4728245695671" cy="285.45705209265026" r="3" fill="#4EF1D9" opacity="0.75"/>
<circle cx="571.6488200491924" cy="285.97834870308117" r="3" fill="#4EF1D9" opacity="0.75"/>
<circle cx="573.0239313966629" cy="285.2571939672455" r="3" fill="#4EF1D9" opacity="0.75"/>
<circle cx="573.199926876288" cy="285.97834870308117" r="3" fill="#4EF1D9" opacity="0.75"/>
<circle cx="575.0795585986838" cy="284.89744934151685" r="3" fill="#4EF1D9" opacity="0.75"/>
<circle cx="576.1730771787543" cy="285.44705918638005" r="3" fill="#4EF1D9" opacity="0.75"/>
<circle cx="576.7855414478495" cy="285.97834870308117" r="3" fill="#4EF1D9" opacity="0.75"/>
<circle cx="576.9568437146845" cy="285.9800141874595" r="3" fill="#4EF1D9" opacity="0.75"/>
<circle cx="577.0319351193245" cy="285.97834870308117" r="3" fill="#4EF1D9" opacity="0.75"/>
<circle cx="577.1234527687296" cy="285.97834870308117" r="3" fill="#4EF1D9" opacity="0.75"/>
<circle cx="644.5438011035034" cy="240.35240415754248" r="3" fill="#4EF1D9" opacity="0.75"/>
<circle cx="645.5458020341688" cy="285.6202695617309" r="3" fill="#4EF1D9" opacity="0.75"/>
<circle cx="646.4116997939241" cy="285.68522345248743" r="3" fill="#4EF1D9" opacity="0.75"/>
<circle cx="647.3667685966894" cy="285.6502482805416" r="3" fill="#4EF1D9" opacity="0.75"/>
<circle cx="648.1317622814598" cy="285.7884834839466" r="3" fill="#4EF1D9" opacity="0.75"/>
<circle cx="648.9272618493652" cy="285.7418499213521" r="3" fill="#4EF1D9" opacity="0.75"/>
<circle cx="650.0489397061757" cy="285.53033340529873" r="3" fill="#4EF1D9" opacity="0.75"/>
<circle cx="651.0767533071861" cy="285.59695278043364" r="3" fill="#4EF1D9" opacity="0.75"/>
<circle cx="651.8605198431164" cy="285.7435154057305" r="3" fill="#4EF1D9" opacity="0.75"/>
<circle cx="652.8672139865719" cy="285.6685686087037" r="3" fill="#4EF1D9" opacity="0.75"/>
<circle cx="658.032094661969" cy="282.645714461956" r="3" fill="#4EF1D9" opacity="0.75"/>
<circle cx="658.4239779299342" cy="285.97834870308117" r="3" fill="#4EF1D9" opacity="0.75"/>
<circle cx="658.4920295153893" cy="285.97834870308117" r="3" fill="#4EF1D9" opacity="0.75"/>
<circle cx="658.5600811008442" cy="285.97834870308117" r="3" fill="#4EF1D9" opacity="0.75"/>
<circle cx="658.6281326862993" cy="285.97834870308117" r="3" fill="#4EF1D9" opacity="0.75"/>
<circle cx="711.5394136807818" cy="250.31366622459365" r="3" fill="#4EF1D9" opacity="0.75"/>
<circle cx="711.8843648208468" cy="285.97834870308117" r="3" fill="#4EF1D9" opacity="0.75"/>
<circle cx="711.9758824702519" cy="285.9800141874595" r="3" fill="#4EF1D9" opacity="0.75"/>
<circle cx="712.069746726052" cy="285.97834870308117" r="3" fill="#4EF1D9" opacity="0.75"/>
<circle cx="712.1424915242969" cy="285.97834870308117" r="3" fill="#4EF1D9" opacity="0.75"/>
<circle cx="749.657687961178" cy="261.7139067945594" r="3" fill="#4EF1D9" opacity="0.75"/>
<circle cx="752.7927541048992" cy="284.0747000586004" r="3" fill="#4EF1D9" opacity="0.75"/>
<circle cx="753.0649604467194" cy="285.97834870308117" r="3" fill="#4EF1D9" opacity="0.75"/>
<circle cx="762.9699860400186" cy="279.22314406439875" r="3" fill="#4EF1D9" opacity="0.75"/>
<circle cx="763.969640364289" cy="285.62360053048764" r="3" fill="#4EF1D9" opacity="0.75"/>
<circle cx="766.8489264109552" cy="284.26456527773496" r="3" fill="#4EF1D9" opacity="0.75"/>
<circle cx="770.2843581732367" cy="283.9497887302224" r="3" fill="#4EF1D9" opacity="0.75"/>
<circle cx="770.5166722063418" cy="285.97834870308117" r="3" fill="#4EF1D9" opacity="0.75"/>
<circle cx="772.3094794921226" cy="284.91243870092217" r="3" fill="#4EF1D9" opacity="0.75"/>
<circle cx="772.5042478229077" cy="285.97834870308117" r="3" fill="#4EF1D9" opacity="0.75"/>
<circle cx="773.5977664029781" cy="285.4970237177312" r="3" fill="#4EF1D9" opacity="0.75"/>
<circle cx="776.6413148972945" cy="284.2129352620054" r="3" fill="#4EF1D9" opacity="0.75"/>
<circle cx="777.1880741873297" cy="285.8334515621627" r="3" fill="#4EF1D9" opacity="0.75"/>
<circle cx="777.8333909459549" cy="285.97834870308117" r="3" fill="#4EF1D9" opacity="0.75"/>
<circle cx="777.9061357441999" cy="285.97834870308117" r="3" fill="#4EF1D9" opacity="0.75"/>
<circle cx="778" cy="285.97834870308117" r="3" fill="#4EF1D9" opacity="0.75"/>

  </g>
  <g transform="translate(0,372)">
    
<rect width="100%" height="100%" fill="#1e1e1e"/>
<line x1="72" y1="16" x2="72" y2="186" stroke="#666" stroke-width="1"/>
<line x1="72" y1="186" x2="796" y2="186" stroke="#666" stroke-width="1"/>
<text x="72" y="210" text-anchor="middle" fill="#aaa" font-size="10" font-family="monospace">12 µs</text>
<text x="434.0022331480602" y="210" text-anchor="middle" fill="#aaa" font-size="10" font-family="monospace">81.064 ms</text>
<text x="796" y="210" text-anchor="middle" fill="#aaa" font-size="10" font-family="monospace">162.115 ms</text>
<text x="410" y="218" text-anchor="middle" fill="#888" font-size="11" font-family="sans-serif">Duration</text>
<text transform="rotate(-90 14 110)" x="14" y="110" text-anchor="middle" fill="#888" font-size="11" font-family="sans-serif">Count</text>
<line x1="93.12358507022262" y1="16" x2="93.12358507022262" y2="186" stroke="#CE93D8" stroke-width="1" stroke-dasharray="4 3" opacity="0.85"/>
<text x="93.12358507022262" y="12" text-anchor="middle" fill="#CE93D8" font-size="9" font-family="monospace">avg</text>
<line x1="72.8351973745088" y1="16" x2="72.8351973745088" y2="186" stroke="#4CAF50" stroke-width="1" stroke-dasharray="4 3" opacity="0.85"/>
<text x="72.8351973745088" y="12" text-anchor="middle" fill="#4CAF50" font-size="9" font-family="monospace">p50</text>
<line x1="167.64573141767886" y1="16" x2="167.64573141767886" y2="186" stroke="#FF9800" stroke-width="1" stroke-dasharray="4 3" opacity="0.85"/>
<text x="167.64573141767886" y="12" text-anchor="middle" fill="#FF9800" font-size="9" font-family="monospace">p95</text>
<rect x="72" y="16" width="13.48" height="170" fill="#4EF1D9" opacity="0.8"/>
<rect x="86.48" y="175.50617283950618" width="13.48" height="10.493827160493826" fill="#4EF1D9" opacity="0.8"/>
<rect x="100.96000000000001" y="183.90123456790124" width="13.48" height="2.0987654320987654" fill="#4EF1D9" opacity="0.8"/>
<rect x="115.44" y="183.90123456790124" width="13.48" height="2.0987654320987654" fill="#4EF1D9" opacity="0.8"/>
<rect x="129.92000000000002" y="183.90123456790124" width="13.48" height="2.0987654320987654" fill="#4EF1D9" opacity="0.8"/>
<rect x="158.88" y="183.90123456790124" width="13.48" height="2.0987654320987654" fill="#4EF1D9" opacity="0.8"/>
<rect x="187.84" y="183.90123456790124" width="13.48" height="2.0987654320987654" fill="#4EF1D9" opacity="0.8"/>
<rect x="303.68" y="183.90123456790124" width="13.48" height="2.0987654320987654" fill="#4EF1D9" opacity="0.8"/>
<rect x="477.44" y="183.90123456790124" width="13.48" height="2.0987654320987654" fill="#4EF1D9" opacity="0.8"/>
<rect x="781.52" y="183.90123456790124" width="13.48" height="2.0987654320987654" fill="#4EF1D9" opacity="0.8"/>

  </g>
</svg>
